<svg width="26" height="26" viewBox="0 0 26 26" fill="none" xmlns="http://www.w3.org/2000/svg">
<g opacity="0.5" clip-path="url(#clip0)">
<path d="M0.459237 12.536L6.45016 14.772L8.76901 22.2294C8.91738 22.707 9.50143 22.8835 9.88909 22.5666L13.2285 19.8442C13.5786 19.559 14.0772 19.5448 14.443 19.8103L20.4662 24.1833C20.8808 24.4847 21.4684 24.2575 21.5724 23.7564L25.9847 2.53248C26.0982 1.98509 25.5603 1.52844 25.0391 1.73003L0.452217 11.2149C-0.154537 11.4489 -0.14925 12.308 0.459237 12.536ZM8.3953 13.5817L20.1038 6.37042C20.3142 6.2412 20.5307 6.52573 20.35 6.69335L10.6871 15.6755C10.3475 15.9916 10.1284 16.4147 10.0663 16.874L9.73716 19.3133C9.69357 19.639 9.23606 19.6713 9.14618 19.3561L7.88024 14.908C7.73525 14.4006 7.94654 13.8587 8.3953 13.5817Z" fill="#F6FCFA"/>
</g>
<defs>
<clipPath id="clip0">
<rect width="26" height="26" fill="white"/>
</clipPath>
</defs>
</svg>
